#N canvas 12 155 1132 539 10;
#X declare -lib mrpeach;
#X floatatom 252 163 5 0 0 0 - - -;
#N canvas 547 259 585 391 FM 0;
#X obj 138 172 cycle~;
#X obj 134 148 +~;
#X obj 153 96 cycle~;
#X obj 136 20 inlet;
#X obj 191 20 inlet;
#X obj 153 53 *~ 0;
#X obj 246 74 *~ 0;
#X obj 153 122 *~;
#X obj 268 18 inlet;
#X obj 138 318 dac~;
#X obj 318 199 line;
#X obj 347 22 inlet;
#X msg 342 159 \$1 50;
#X obj 137 220 *~ 0;
#X obj 138 268 *~ 1;
#X obj 434 25 inlet;
#X obj 434 63 / 3.14;
#X obj 439 109 + 1;
#X obj 439 146 / 2;
#X obj 436 178 clip 0 1;
#X floatatom 458 220 5 0 0 0 - - -;
#X connect 0 0 13 0;
#X connect 1 0 0 0;
#X connect 2 0 7 0;
#X connect 3 0 1 0;
#X connect 3 0 5 0;
#X connect 4 0 5 1;
#X connect 5 0 6 0;
#X connect 5 0 2 0;
#X connect 6 0 7 1;
#X connect 7 0 1 1;
#X connect 8 0 6 1;
#X connect 10 0 13 1;
#X connect 11 0 12 0;
#X connect 12 0 10 0;
#X connect 13 0 14 0;
#X connect 14 0 9 0;
#X connect 14 0 9 1;
#X connect 15 0 16 0;
#X connect 16 0 17 0;
#X connect 17 0 18 0;
#X connect 18 0 19 0;
#X connect 19 0 20 0;
#X connect 19 0 14 1;
#X restore 275 409 pd FM;
#X obj 251 133 mtof;
#X msg -3 292 4;
#X msg 34 292 1;
#X msg 225 291 1;
#X msg 96 293 5;
#X msg 133 293 3;
#X msg 188 291 8;
#X msg 283 291 12;
#X msg 320 291 8;
#X msg 375 291 25;
#X msg 412 291 9;
#X obj 17 22 import mrpeach;
#X obj 407 75 udpreceive 7101;
#X obj 254 32 udpreceive 7121;
#X obj 254 57 unpackOSC;
#X obj 407 103 unpackOSC;
#X obj 408 125 route /node/A/side;
#X floatatom 407 149 5 0 0 0 - - -;
#X obj 406 202 sel 1 2 3 4 5 6;
#X obj 252 101 unpack 1 1;
#X floatatom 308 162 5 0 0 0 - - -;
#X obj 252 77 route /note/;
#X obj 491 361 gate;
#X obj 495 333 tgl 15 0 empty empty empty 17 7 0 10 -262144 -1 -1 1
1;
#X obj 545 359 gate;
#X obj 407 174 change;
#X msg 493 301 1;
#X msg 533 298 0;
#X floatatom 748 381 5 0 0 0 - - -;
#X obj 742 118 route /node/B/yaw;
#X obj 850 300 loadbang;
#X obj 853 328 delay 100;
#X msg 857 371 \; pd dsp 1;
#X connect 0 0 24 1;
#X connect 2 0 0 0;
#X connect 3 0 1 1;
#X connect 4 0 1 2;
#X connect 5 0 1 2;
#X connect 6 0 1 1;
#X connect 7 0 1 2;
#X connect 8 0 1 1;
#X connect 9 0 1 1;
#X connect 10 0 1 2;
#X connect 11 0 1 1;
#X connect 12 0 1 2;
#X connect 14 0 17 0;
#X connect 15 0 16 0;
#X connect 16 0 23 0;
#X connect 17 0 18 0;
#X connect 17 0 31 0;
#X connect 18 0 19 0;
#X connect 19 0 27 0;
#X connect 20 0 3 0;
#X connect 20 0 4 0;
#X connect 20 0 28 0;
#X connect 20 1 6 0;
#X connect 20 1 7 0;
#X connect 20 1 28 0;
#X connect 20 2 8 0;
#X connect 20 2 5 0;
#X connect 20 2 28 0;
#X connect 20 3 9 0;
#X connect 20 3 10 0;
#X connect 20 3 28 0;
#X connect 20 4 11 0;
#X connect 20 4 12 0;
#X connect 20 4 28 0;
#X connect 20 5 29 0;
#X connect 21 0 2 0;
#X connect 21 1 22 0;
#X connect 22 0 26 1;
#X connect 23 0 21 0;
#X connect 24 0 1 0;
#X connect 25 0 24 0;
#X connect 25 0 26 0;
#X connect 26 0 1 3;
#X connect 27 0 20 0;
#X connect 28 0 25 0;
#X connect 29 0 25 0;
#X connect 30 0 1 4;
#X connect 31 0 30 0;
#X connect 32 0 33 0;
#X connect 33 0 34 0;
