#N canvas 253 22 471 337 10;
#X declare -lib mrpeach;
#X floatatom -5195 -310 5 0 0 0 - - -;
#X obj -5199 -210 udpsend;
#X obj -5192 -358 notein;
#X floatatom -5158 -311 5 0 0 0 - - -;
#X obj -5064 -256 loadbang;
#X obj -5199 -175 tgl 15 0 empty empty empty 17 7 0 10 -262144 -1 -1
1 1;
#X obj -5192 -334 stripnote;
#X text -5309 -411 Receive MIDI data and send via OSC;
#X msg -5064 -229 connect 192.168.0.20 7121;
#X obj -5197 -239 packOSC;
#X obj -5195 -288 pack;
#X msg -5196 -264 send /note \$1 \$2;
#X obj -5298 -358 import mrpeach;
#X connect 0 0 10 0;
#X connect 1 0 5 0;
#X connect 2 0 6 0;
#X connect 2 1 6 1;
#X connect 3 0 10 1;
#X connect 4 0 8 0;
#X connect 6 0 0 0;
#X connect 6 1 3 0;
#X connect 8 0 1 0;
#X connect 9 0 1 0;
#X connect 10 0 11 0;
#X connect 11 0 9 0;
