#N canvas 257 73 624 652 10;
#X declare -lib mrpeach;
#X obj 319 455 print match_1;
#X obj 409 415 print match_2;
#X obj 33 7 import mrpeach;
#X obj 321 315 routeOSC /note/;
#X obj 325 238 unpackOSC;
#X obj 107 203 unpackOSC;
#X obj 103 152 udpreceive 7101;
#X obj 48 383 routeOSC /node/A/yprAxAyAz;
#X floatatom 43 437 3 0 0 0 - - -;
#X floatatom 70 437 3 0 0 0 - - -;
#X floatatom 97 437 3 0 0 0 - - -;
#X floatatom 124 437 3 0 0 0 - - -;
#X floatatom 152 437 8 0 0 0 - - -;
#X obj 43 413 unpack 0 0 0 0 0 0;
#X floatatom 220 434 8 0 0 0 - - -;
#X obj -2 530 print yaw;
#X obj 82 531 print pitch;
#X obj 173 531 print roll;
#X obj 22 273 routeOSC /node/A/side;
#X obj 15 316 print sideA;
#X obj 184 269 routeOSC /node/B/side;
#X obj 178 313 print sideB;
#X obj 321 187 udpreceive 7121;
#X connect 3 0 0 0;
#X connect 4 0 3 0;
#X connect 5 0 18 0;
#X connect 5 0 20 0;
#X connect 6 0 5 0;
#X connect 7 0 13 0;
#X connect 8 0 15 0;
#X connect 9 0 16 0;
#X connect 10 0 17 0;
#X connect 13 0 8 0;
#X connect 13 1 9 0;
#X connect 13 2 10 0;
#X connect 13 3 11 0;
#X connect 13 4 12 0;
#X connect 13 5 14 0;
#X connect 18 0 19 0;
#X connect 20 0 21 0;
#X connect 22 0 4 0;
