#N canvas 432 51 397 428 10;
#X declare -lib mrpeach;
#X obj -19 275 print unpacked;
#X obj 127 355 print match_1;
#X obj 217 315 print match_2;
#X obj -22 31 import mrpeach;
#X obj 129 215 routeOSC /note/;
#X obj 129 133 unpackOSC;
#X obj 129 87 udpreceive 7000;
#X connect 4 0 1 0;
#X connect 4 1 2 0;
#X connect 5 0 0 0;
#X connect 5 0 4 0;
#X connect 6 0 5 0;
