#N canvas 676 143 450 300 10;
#X declare -lib mrpeach;
#X obj 175 225 udpsend;
#X obj 175 259 tgl 15 0 empty empty connected 20 7 0 8 -24198 -241291
-1 1 1;
#X msg 8 48 send 1 2 4 5;
#X obj 38 9 import mrpeach;
#X obj 107 171 packOSC;
#X floatatom 105 50 5 0 0 0 - - -;
#X obj 182 15 notein;
#X obj 172 55 pack 1 1;
#X msg 110 117 send /note/ \$1 \$2;
#X obj 278 67 ctlin;
#X msg 240 116 send /ctl/ \$1;
#X obj 369 80 loadbang;
#X msg 292 239 print;
#X msg 277 177 connect localhost 7121;
#X msg -17 117 send /note2/ \$1;
#X msg 17 183 print;
#X connect 0 0 1 0;
#X connect 2 0 4 0;
#X connect 4 0 0 0;
#X connect 4 0 12 0;
#X connect 5 0 8 0;
#X connect 6 0 7 0;
#X connect 6 1 7 1;
#X connect 7 0 8 0;
#X connect 7 0 14 0;
#X connect 8 0 4 0;
#X connect 9 0 10 0;
#X connect 10 0 4 0;
#X connect 11 0 13 0;
#X connect 13 0 0 0;
#X connect 14 0 4 0;
#X connect 14 0 15 0;
