#N canvas 676 143 450 300 10;
#X declare -lib mrpeach;
#X obj 38 9 import mrpeach;
#X obj 107 171 packOSC;
#X obj 182 15 notein;
#X obj 172 55 pack 1 1;
#X obj 278 67 ctlin;
#X msg 240 116 send /ctl/ \$1;
#X msg 99 222 print;
#X msg 76 109 send /note2/ \$1;
#X msg 17 183 print;
#X msg 244 197 print;
#X connect 1 0 6 0;
#X connect 2 0 3 0;
#X connect 2 1 3 1;
#X connect 3 0 7 0;
#X connect 4 0 5 0;
#X connect 5 0 1 0;
#X connect 5 0 9 0;
#X connect 7 0 1 0;
#X connect 7 0 8 0;
