#N canvas 196 127 412 427 10;
#X declare -lib mrpeach;
#X obj -6 105 MouseState;
#X floatatom -6 158 5 0 0 0 - - -;
#X floatatom 48 135 5 0 0 0 - - -;
#X msg 11 65 poll;
#X obj 31 11 loadbang;
#X text 148 23 comment;
#X text 134 12 Displays x and y position of the mouse;
#X msg -4 226 send /mouse/x \$1;
#X msg 52 176 send /mouse/y \$1;
#X msg 261 98 disconnect;
#X msg 59 79 nopoll;
#X obj 236 329 tgl 15 0 empty empty empty 17 7 0 10 -262144 -1 -1 0
1;
#X msg 122 64 connect localhost 34567;
#X obj 277 38 import mrpeach;
#X obj 116 271 packOSC;
#X obj 171 300 udpsend;
#X obj 92 129 print y;
#X obj 7 190 print x;
#X connect 0 1 1 0;
#X connect 0 1 17 0;
#X connect 0 2 2 0;
#X connect 0 2 16 0;
#X connect 1 0 7 0;
#X connect 2 0 8 0;
#X connect 3 0 0 0;
#X connect 4 0 3 0;
#X connect 4 0 12 0;
#X connect 7 0 14 0;
#X connect 8 0 14 0;
#X connect 9 0 15 0;
#X connect 10 0 0 0;
#X connect 12 0 15 0;
#X connect 14 0 15 0;
#X connect 15 0 11 0;
