#N canvas 103 105 412 427 10;
#X declare -lib oscx;
#X obj -6 105 MouseState;
#X floatatom -6 158 5 0 0 0 - - -;
#X floatatom 48 135 5 0 0 0 - - -;
#X msg 11 65 poll;
#X obj 31 11 loadbang;
#X text 148 23 comment;
#X text 134 12 Displays x and y position of the mouse;
#X obj 277 38 import oscx;
#X msg -4 226 send /mouse/x \$1;
#X msg 52 176 send /mouse/y \$1;
#X msg 261 98 disconnect;
#X obj 236 285 sendOSC;
#X msg 59 79 nopoll;
#X obj 236 329 tgl 15 0 empty empty empty 17 7 0 10 -262144 -1 -1 0
1;
#X msg 122 64 connect localhost 34567;
#X connect 0 1 1 0;
#X connect 0 2 2 0;
#X connect 1 0 8 0;
#X connect 2 0 9 0;
#X connect 3 0 0 0;
#X connect 4 0 3 0;
#X connect 4 0 14 0;
#X connect 8 0 11 0;
#X connect 9 0 11 0;
#X connect 10 0 11 0;
#X connect 11 0 13 0;
#X connect 12 0 0 0;
#X connect 14 0 11 0;
